<svg xmlns="http://www.w3.org/2000/svg" xmlns:xlink="http://www.w3.org/1999/xlink" width="32" height="31" viewBox="0 0 32 31"><defs><path id="271aa" d="M420.74 2319.5a15.72 15.72 0 0 0-8.24-8.24 5.87 5.87 0 0 1 8.24 8.24zm-.24 6.5c0 3.85-1.51 7.34-3.96 9.94l2.03 2.03a1.48 1.48 0 1 1-2.1 2.1l-2.18-2.18a14.42 14.42 0 0 1-16.57 0l-2.16 2.17a1.5 1.5 0 1 1-2.12-2.12l2.01-2.01a14.5 14.5 0 1 1 25.05-9.93zm-14.5-11.5a11.5 11.5 0 1 0 0 23 11.5 11.5 0 0 0 0-23zm6 13h-6a1.5 1.5 0 0 1-1.5-1.5v-8a1.5 1.5 0 0 1 3 0v6.5h4.5a1.5 1.5 0 0 1 0 3zm-20.71-7.8a6 6 0 0 1 8.42-8.42 16.06 16.06 0 0 0-8.42 8.43z"/></defs><g><g transform="translate(-390 -2310)"><use fill="#95e1d3" xlink:href="#271aa"/></g></g></svg>