<svg xmlns="http://www.w3.org/2000/svg" xmlns:xlink="http://www.w3.org/1999/xlink" width="150" height="150" viewBox="0 0 150 150"><defs><path id="gngga" d="M470 4640v-150h150v150z"/><path id="gnggc" d="M574 4571h-2v5c0 .2-.02.4-.06.6-.03.14-.08.27-.12.4l-.06.17c-.04.11-.11.22-.17.32l-.1.19c-.1.14-.21.27-.34.4l-.03.04c-.53.53-1.27.86-2.08.87H569c-.83 0-1.58-.33-2.12-.87l-7.12-7.12H532a3 3 0 0 1-3-3v-30a3 3 0 0 1 3-3h42a3 3 0 0 1 3 3v30a3 3 0 0 1-3 3zm-15.49 3l6.33 6.32A5.97 5.97 0 0 0 569 4582v2a3 3 0 0 1-3 3h-31.76l-8.12 8.12a3 3 0 0 1-2.12.88h-.04a3 3 0 0 1-2.08-.88l-.03-.04a2.93 2.93 0 0 1-.34-.4l-.1-.19c-.06-.1-.13-.21-.17-.32l-.06-.17c-.04-.13-.1-.26-.12-.4a3 3 0 0 1-.06-.6v-6h-4a3 3 0 0 1-3-3v-34a3 3 0 0 1 3-3h9v21a6 6 0 0 0 6 6z"/><clipPath id="gnggb"><use fill="#fff" xlink:href="#gngga"/></clipPath></defs><g><g transform="translate(-470 -4490)"><use xlink:href="#gngga"/><use fill="#fff" fill-opacity="0" stroke="#95e1d3" stroke-linecap="round" stroke-linejoin="round" stroke-miterlimit="50" stroke-width="6" clip-path="url(&quot;#gnggb&quot;)" xlink:href="#gngga"/></g><g transform="translate(-470 -4490)"><use fill="#95e1d3" xlink:href="#gnggc"/></g></g></svg>