<svg xmlns="http://www.w3.org/2000/svg" xmlns:xlink="http://www.w3.org/1999/xlink" width="30" height="30" viewBox="0 0 30 30"><defs><path id="pe7ba" d="M1006 3959c0 .65-.42 1.2-1 1.4v1.69a1.5 1.5 0 1 1-1.9 1.9h-1.7c-.2.59-.75 1-1.4 1a1.5 1.5 0 0 1-1.4-1h-1.7c-.2.59-.75 1-1.4 1a1.5 1.5 0 0 1-1.4-1h-1.7c-.2.59-.75 1-1.4 1a1.5 1.5 0 0 1-1.4-1h-1.7c-.2.59-.75 1-1.4 1a1.5 1.5 0 0 1-1.4-1h-1.7c-.2.59-.75 1-1.4 1a1.5 1.5 0 0 1-1.4-1h-1.7a1.5 1.5 0 1 1-1.9-1.9v-1.68a1.5 1.5 0 0 1 0-2.82v-1.68a1.5 1.5 0 0 1 0-2.82v-1.68a1.5 1.5 0 0 1 0-2.82v-1.68a1.5 1.5 0 0 1 0-2.82v-1.68a1.5 1.5 0 0 1 0-2.82v-1.68a1.5 1.5 0 1 1 1.9-1.91h1.7a1.5 1.5 0 0 1 2.8 0h1.7a1.5 1.5 0 0 1 2.8 0h1.7a1.5 1.5 0 0 1 2.8 0h1.7a1.5 1.5 0 0 1 2.8 0h1.7a1.5 1.5 0 0 1 2.8 0h1.7a1.5 1.5 0 1 1 1.9 1.9v1.69a1.5 1.5 0 0 1 0 2.82v1.68a1.5 1.5 0 0 1 0 2.82v1.68c.58.2 1 .76 1 1.4 0 .66-.42 1.21-1 1.42v1.68a1.5 1.5 0 0 1 0 2.82v1.68c.58.2 1 .76 1 1.4zm-4-20h-22v22h22zm-13 16l7-8.5 4.5 7v6h-19l6-6zm-3-7a3 3 0 1 1 0-6 3 3 0 0 1 0 6z"/></defs><g><g transform="translate(-976 -3935)"><use fill="#95e1d3" xlink:href="#pe7ba"/></g></g></svg>